<svg width="100" height="50" viewBox="0 0 100 50" version="1.1" xmlns="http://www.w3.org/2000/svg" xmlns:xlink="http://www.w3.org/1999/xlink">
<title>Rectangle</title>
<desc>Created using Figma</desc>
<g id="Canvas" transform="translate(392 -312)">
<g id="Rectangle">
<use xlink:href="#path0_fill" transform="translate(-392 312)" fill="#292C31"/>
<mask id="mask0_outline_ins">
<use xlink:href="#path0_fill" fill="white" transform="translate(-392 312)"/>
</mask>
<g mask="url(#mask0_outline_ins)">
<use xlink:href="#path1_stroke_2x" transform="translate(-392 312)" fill="#454952"/>
</g>
</g>
</g>
<defs>
<path id="path0_fill" d="M 0 0L 100 0L 100 50L 0 50L 0 0Z"/>
<path id="path1_stroke_2x" d="M 0 0L 0 -5L -5 -5L -5 0L 0 0ZM 100 0L 105 0L 105 -5L 100 -5L 100 0ZM 100 50L 100 55L 105 55L 105 50L 100 50ZM 0 50L -5 50L -5 55L 0 55L 0 50ZM 0 5L 100 5L 100 -5L 0 -5L 0 5ZM 95 0L 95 50L 105 50L 105 0L 95 0ZM 100 45L 0 45L 0 55L 100 55L 100 45ZM 5 50L 5 0L -5 0L -5 50L 5 50Z"/>
</defs>
</svg>
